<svg width="472" height="350" viewBox="0 0 472 350" fill="none" xmlns="http://www.w3.org/2000/svg">
<path d="M234.935 130.964H6.58545V172.956H234.935V130.964Z" fill="white"/>
<path d="M234.935 173.927H6.58535C6.30065 173.922 6.02918 173.818 5.82783 173.637C5.62649 173.456 5.5109 173.212 5.50537 172.956V130.964C5.50537 130.706 5.61917 130.459 5.8217 130.277C6.02424 130.095 6.29892 129.993 6.58535 129.993H234.935C235.222 129.993 235.496 130.095 235.699 130.277C235.901 130.459 236.015 130.706 236.015 130.964V172.956C236.015 173.214 235.901 173.46 235.699 173.642C235.496 173.824 235.222 173.927 234.935 173.927ZM7.66532 171.986H233.855V131.934H7.66532V171.986Z" fill="#263238"/>
<path d="M49.0289 142.82H8.96181C8.67538 142.82 8.4007 142.718 8.19817 142.536C7.99563 142.354 7.88184 142.107 7.88184 141.85C7.88184 141.593 7.99563 141.346 8.19817 141.164C8.4007 140.982 8.67538 140.88 8.96181 140.88H49.0289C49.3153 140.88 49.59 140.982 49.7925 141.164C49.9951 141.346 50.1089 141.593 50.1089 141.85C50.1089 142.107 49.9951 142.354 49.7925 142.536C49.59 142.718 49.3153 142.82 49.0289 142.82Z" fill="#263238"/>
<path d="M67.8205 154.269H62.3559C62.0694 154.269 61.7947 154.167 61.5922 153.985C61.3896 153.803 61.2759 153.556 61.2759 153.299C61.2759 153.042 61.3896 152.795 61.5922 152.613C61.7947 152.431 62.0694 152.329 62.3559 152.329H67.8205C68.107 152.329 68.3816 152.431 68.5842 152.613C68.7867 152.795 68.9005 153.042 68.9005 153.299C68.9005 153.556 68.7867 153.803 68.5842 153.985C68.3816 154.167 68.107 154.269 67.8205 154.269Z" fill="#263238"/>
<path d="M53.2839 154.269H8.33535C8.04892 154.269 7.77421 154.167 7.57167 153.985C7.36914 153.803 7.25537 153.556 7.25537 153.299C7.2609 153.043 7.37645 152.799 7.5778 152.618C7.77915 152.437 8.05065 152.334 8.33535 152.329H53.2839C53.5703 152.329 53.845 152.431 54.0475 152.613C54.2501 152.795 54.3639 153.042 54.3639 153.299C54.3639 153.556 54.2501 153.803 54.0475 153.985C53.845 154.167 53.5703 154.269 53.2839 154.269Z" fill="#263238"/>
<path d="M27.7743 166.145H9.28505C8.99863 166.145 8.72395 166.043 8.52141 165.861C8.31888 165.679 8.20508 165.432 8.20508 165.175C8.20508 164.918 8.31888 164.671 8.52141 164.489C8.72395 164.307 8.99863 164.205 9.28505 164.205H27.7743C28.0607 164.205 28.3354 164.307 28.5379 164.489C28.7404 164.671 28.8542 164.918 28.8542 165.175C28.8542 165.432 28.7404 165.679 28.5379 165.861C28.3354 166.043 28.0607 166.145 27.7743 166.145Z" fill="#263238"/>
<path d="M188.065 132.4C184.189 145.365 184.189 159.02 188.065 171.986H280.079C280.079 171.986 270.402 146.876 280.079 132.4H188.065Z" fill="white"/>
<path d="M280.078 172.956H188.064C187.824 172.96 187.59 172.891 187.398 172.761C187.206 172.631 187.068 172.447 187.006 172.238C183.128 159.089 183.128 145.258 187.006 132.109C187.075 131.911 187.213 131.738 187.4 131.616C187.586 131.493 187.812 131.428 188.043 131.429H280.057C280.246 131.434 280.431 131.483 280.594 131.571C280.756 131.659 280.891 131.783 280.984 131.931C281.078 132.08 281.127 132.247 281.127 132.418C281.127 132.588 281.078 132.756 280.985 132.904C271.676 146.837 280.985 171.423 280.985 171.715C281.04 171.86 281.055 172.015 281.031 172.167C281.006 172.318 280.941 172.463 280.842 172.588C280.743 172.713 280.612 172.815 280.461 172.886C280.309 172.957 280.141 172.994 279.97 172.995L280.078 172.956ZM188.885 171.016H278.588C276.795 165.815 270.942 146.391 278.242 133.37H188.777C185.352 145.734 185.389 158.668 188.885 171.016Z" fill="#263238"/>
<mask id="mask0_299_128" style="mask-type:luminance" maskUnits="userSpaceOnUse" x="185" y="132" width="96" height="40">
<mask id="mask1_299_128" style="mask-type:luminance" maskUnits="userSpaceOnUse" x="185" y="132" width="96" height="40">
<path d="M188.065 132.4C184.189 145.365 184.189 159.02 188.065 171.986H280.079C280.079 171.986 270.402 146.876 280.079 132.4H188.065Z" fill="white"/>
</mask>
<g mask="url(#mask1_299_128)">
<path d="M280.078 172.956H188.064C187.824 172.96 187.59 172.891 187.398 172.761C187.206 172.631 187.068 172.447 187.006 172.238C183.128 159.089 183.128 145.258 187.006 132.109C187.075 131.911 187.213 131.738 187.4 131.616C187.586 131.493 187.812 131.428 188.043 131.429H280.057C280.246 131.434 280.431 131.483 280.594 131.571C280.756 131.659 280.891 131.783 280.984 131.931C281.078 132.08 281.127 132.247 281.127 132.418C281.127 132.588 281.078 132.756 280.985 132.904C271.676 146.837 280.985 171.423 280.985 171.715C281.04 171.86 281.055 172.015 281.031 172.167C281.006 172.318 280.941 172.463 280.842 172.588C280.743 172.713 280.612 172.815 280.461 172.886C280.309 172.957 280.141 172.994 279.97 172.995L280.078 172.956ZM188.885 171.016H278.588C276.795 165.815 270.942 146.391 278.242 133.37H188.777C185.352 145.734 185.389 158.668 188.885 171.016Z" fill="white"/>
</g>
</mask>
<g mask="url(#mask0_299_128)">
<g opacity="0.24">
<path d="M188.065 132.4C184.189 145.365 184.189 159.02 188.065 171.986H280.079C280.079 171.986 270.402 146.876 280.079 132.4H188.065Z" fill="black"/>
<path d="M280.078 172.956H188.064C187.824 172.96 187.59 172.891 187.398 172.761C187.206 172.631 187.068 172.447 187.006 172.238C183.128 159.089 183.128 145.258 187.006 132.109C187.075 131.911 187.213 131.738 187.4 131.616C187.586 131.493 187.812 131.428 188.043 131.429H280.057C280.246 131.434 280.431 131.483 280.594 131.571C280.756 131.659 280.891 131.783 280.984 131.931C281.078 132.08 281.127 132.247 281.127 132.418C281.127 132.588 281.078 132.756 280.985 132.904C271.676 146.837 280.985 171.423 280.985 171.715C281.04 171.86 281.055 172.015 281.031 172.167C281.006 172.319 280.941 172.463 280.842 172.588C280.743 172.713 280.612 172.815 280.461 172.886C280.309 172.957 280.141 172.994 279.97 172.995L280.078 172.956ZM188.885 171.016H278.588C276.795 165.815 270.942 146.391 278.242 133.37H188.777C185.352 145.734 185.389 158.668 188.885 171.016Z" fill="#263238"/>
</g>
</g>
<path d="M9.28576 165.175V136.513C9.28576 135.808 9.59755 135.132 10.1525 134.634C10.7074 134.135 11.4601 133.855 12.2449 133.855H283.815C284.388 133.855 284.938 133.65 285.343 133.287C285.748 132.923 285.975 132.429 285.975 131.914C285.975 131.4 285.748 130.906 285.343 130.542C284.938 130.178 284.388 129.974 283.815 129.974H4.90106C4.11625 129.974 3.36359 130.254 2.80865 130.753C2.2537 131.251 1.94194 131.927 1.94194 132.632V169.192C1.9391 169.757 2.06046 170.316 2.29908 170.839C2.5377 171.361 2.88888 171.836 3.33242 172.237C3.77596 172.637 4.30314 172.955 4.8837 173.171C5.46425 173.388 6.08676 173.5 6.71545 173.5H283.815C284.388 173.5 284.938 173.295 285.343 172.931C285.748 172.567 285.975 172.074 285.975 171.559C285.975 171.045 285.748 170.551 285.343 170.187C284.938 169.823 284.388 169.619 283.815 169.619H14.0593C13.4185 169.616 12.7847 169.499 12.1953 169.273C11.606 169.046 11.0731 168.717 10.6281 168.302C10.1831 167.888 9.83506 167.398 9.6045 166.861C9.37394 166.324 9.26555 165.75 9.28576 165.175Z" fill="#263238"/>
<path d="M283.816 174.47H6.71578C5.16136 174.465 3.67256 173.906 2.57544 172.917C1.47832 171.928 0.862294 170.588 0.862305 169.192V132.497C0.862305 132.02 0.966788 131.548 1.16977 131.108C1.37276 130.668 1.67027 130.268 2.04534 129.931C2.42041 129.594 2.86568 129.326 3.35573 129.144C3.84577 128.962 4.37098 128.868 4.9014 128.868H283.816C284.274 128.835 284.734 128.887 285.168 129.022C285.603 129.156 286.001 129.37 286.339 129.65C286.677 129.93 286.946 130.269 287.13 130.647C287.315 131.026 287.41 131.434 287.41 131.846C287.41 132.259 287.315 132.667 287.13 133.046C286.946 133.424 286.677 133.763 286.339 134.043C286.001 134.323 285.603 134.537 285.168 134.671C284.734 134.806 284.274 134.858 283.816 134.825H12.2452C11.7469 134.825 11.2689 135.003 10.9165 135.32C10.5641 135.636 10.3661 136.066 10.3661 136.513V165.175C10.3661 166.057 10.7545 166.903 11.4466 167.528C12.1386 168.154 13.078 168.507 14.0596 168.513H283.816C284.274 168.479 284.734 168.532 285.168 168.666C285.603 168.801 286.001 169.015 286.339 169.295C286.677 169.575 286.946 169.914 287.13 170.292C287.315 170.67 287.41 171.079 287.41 171.491C287.41 171.904 287.315 172.312 287.13 172.69C286.946 173.068 286.677 173.408 286.339 173.688C286.001 173.968 285.603 174.182 285.168 174.316C284.734 174.451 284.274 174.503 283.816 174.47ZM4.98782 130.808C4.48943 130.808 4.01145 130.986 3.65904 131.303C3.30663 131.619 3.10864 132.049 3.10864 132.497V169.192C3.10862 170.074 3.49709 170.92 4.18914 171.545C4.88119 172.17 5.8206 172.524 6.80217 172.529H283.816C283.981 172.55 284.149 172.538 284.308 172.495C284.468 172.452 284.615 172.379 284.741 172.281C284.866 172.183 284.967 172.061 285.036 171.925C285.105 171.789 285.14 171.641 285.14 171.491C285.14 171.342 285.105 171.194 285.036 171.058C284.967 170.921 284.866 170.8 284.741 170.702C284.615 170.603 284.468 170.53 284.308 170.487C284.149 170.444 283.981 170.433 283.816 170.453H14.0596C13.2891 170.453 12.5262 170.316 11.8146 170.051C11.103 169.786 10.4568 169.396 9.91293 168.906C9.3691 168.416 8.93838 167.834 8.64549 167.193C8.3526 166.553 8.20328 165.867 8.20612 165.175V136.513C8.20612 135.551 8.63168 134.628 9.38916 133.948C10.1466 133.267 11.174 132.885 12.2452 132.885H283.816C283.981 132.905 284.149 132.893 284.308 132.85C284.468 132.808 284.615 132.734 284.741 132.636C284.866 132.538 284.967 132.416 285.036 132.28C285.105 132.144 285.14 131.996 285.14 131.846C285.14 131.697 285.105 131.549 285.036 131.413C284.967 131.277 284.866 131.155 284.741 131.057C284.615 130.959 284.468 130.885 284.308 130.843C284.149 130.8 283.981 130.788 283.816 130.808H4.98782Z" fill="#8BCDE0"/>
<path d="M234.935 217.627H6.58545V259.62H234.935V217.627Z" fill="white"/>
<path d="M234.935 260.59H6.58535C6.29892 260.59 6.02424 260.488 5.8217 260.306C5.61917 260.124 5.50537 259.877 5.50537 259.62V217.627C5.5109 217.371 5.62649 217.127 5.82783 216.947C6.02918 216.766 6.30065 216.662 6.58535 216.657H234.935C235.222 216.657 235.496 216.759 235.699 216.941C235.901 217.123 236.015 217.37 236.015 217.627V259.62C236.015 259.877 235.901 260.124 235.699 260.306C235.496 260.488 235.222 260.59 234.935 260.59ZM7.66532 258.65H233.855V218.597H7.66532V258.65Z" fill="#263238"/>
<path d="M50.541 226.631H10.4091C10.1226 226.631 9.84797 226.529 9.64543 226.347C9.4429 226.165 9.3291 225.918 9.3291 225.661C9.3291 225.403 9.4429 225.157 9.64543 224.975C9.84797 224.793 10.1226 224.691 10.4091 224.691H50.541C50.8274 224.691 51.1021 224.793 51.3046 224.975C51.5071 225.157 51.6209 225.403 51.6209 225.661C51.6209 225.918 51.5071 226.165 51.3046 226.347C51.1021 226.529 50.8274 226.631 50.541 226.631Z" fill="#263238"/>
<path d="M69.3108 238.158H63.8461C63.5614 238.153 63.2899 238.049 63.0885 237.868C62.8872 237.687 62.7716 237.443 62.7661 237.188C62.7661 236.93 62.8799 236.683 63.0824 236.501C63.2849 236.319 63.5597 236.217 63.8461 236.217H69.3108C69.5972 236.217 69.8719 236.319 70.0744 236.501C70.2769 236.683 70.3907 236.93 70.3907 237.188C70.3907 237.445 70.2769 237.692 70.0744 237.874C69.8719 238.056 69.5972 238.158 69.3108 238.158Z" fill="#263238"/>
<path d="M54.7311 238.158H9.8041C9.51767 238.158 9.24299 238.056 9.04045 237.874C8.83792 237.692 8.72412 237.445 8.72412 237.188C8.72412 236.93 8.83792 236.683 9.04045 236.501C9.24299 236.319 9.51767 236.217 9.8041 236.217H54.7311C55.0175 236.217 55.2922 236.319 55.4947 236.501C55.6972 236.683 55.811 236.93 55.811 237.188C55.811 237.445 55.6972 237.692 55.4947 237.874C55.2922 238.056 55.0175 238.158 54.7311 238.158Z" fill="#263238"/>
<path d="M29.2215 250.014H10.7323C10.4459 250.014 10.1712 249.912 9.96864 249.73C9.76611 249.548 9.65234 249.301 9.65234 249.044C9.65234 248.787 9.76611 248.54 9.96864 248.358C10.1712 248.176 10.4459 248.074 10.7323 248.074H29.2215C29.5079 248.074 29.7826 248.176 29.9851 248.358C30.1877 248.54 30.3015 248.787 30.3015 249.044C30.3015 249.301 30.1877 249.548 29.9851 249.73C29.7826 249.912 29.5079 250.014 29.2215 250.014Z" fill="#263238"/>
<path d="M189.49 219.082C185.626 232.05 185.626 245.702 189.49 258.669H280.079C280.079 258.669 270.402 233.559 280.079 219.082H189.49Z" fill="white"/>
<path d="M280.078 259.62H189.49C189.252 259.614 189.022 259.54 188.835 259.407C188.648 259.274 188.514 259.09 188.453 258.883C184.565 245.734 184.565 231.901 188.453 218.753C188.525 218.562 188.662 218.395 188.843 218.277C189.025 218.159 189.244 218.094 189.468 218.093H280.057C280.245 218.094 280.43 218.139 280.593 218.224C280.756 218.309 280.891 218.431 280.986 218.578C281.08 218.729 281.13 218.9 281.13 219.073C281.13 219.246 281.08 219.417 280.986 219.568C271.676 233.481 280.986 258.068 280.986 258.378C281.041 258.527 281.056 258.686 281.03 258.841C281.004 258.996 280.937 259.143 280.834 259.271C280.742 259.373 280.627 259.456 280.497 259.517C280.367 259.577 280.224 259.612 280.078 259.62ZM190.332 257.679H278.588C276.795 252.459 270.942 233.054 278.242 220.033H190.311C186.856 232.391 186.864 245.325 190.332 257.679Z" fill="#263238"/>
<mask id="mask2_299_128" style="mask-type:luminance" maskUnits="userSpaceOnUse" x="186" y="219" width="95" height="40">
<mask id="mask3_299_128" style="mask-type:luminance" maskUnits="userSpaceOnUse" x="186" y="219" width="95" height="40">
<path d="M189.49 219.082C185.626 232.05 185.626 245.702 189.49 258.669H280.079C280.079 258.669 270.402 233.559 280.079 219.082H189.49Z" fill="white"/>
</mask>
<g mask="url(#mask3_299_128)">
<path d="M280.078 259.62H189.49C189.252 259.614 189.022 259.539 188.835 259.407C188.648 259.274 188.514 259.09 188.453 258.882C184.565 245.734 184.565 231.901 188.453 218.753C188.525 218.561 188.662 218.395 188.843 218.277C189.025 218.159 189.244 218.094 189.468 218.093H280.057C280.245 218.094 280.43 218.139 280.593 218.224C280.756 218.309 280.891 218.431 280.986 218.578C281.08 218.729 281.13 218.899 281.13 219.073C281.13 219.246 281.08 219.416 280.986 219.568C271.676 233.481 280.986 258.067 280.986 258.378C281.041 258.527 281.056 258.685 281.03 258.841C281.004 258.996 280.937 259.143 280.834 259.271C280.742 259.373 280.627 259.456 280.497 259.516C280.367 259.577 280.224 259.612 280.078 259.62ZM190.332 257.679H278.588C276.795 252.459 270.942 233.054 278.242 220.033H190.311C186.856 232.391 186.864 245.325 190.332 257.679Z" fill="white"/>
</g>
</mask>
<g mask="url(#mask2_299_128)">
<g opacity="0.24">
<path d="M189.49 219.082C185.626 232.05 185.626 245.702 189.49 258.669H280.078C280.078 258.669 270.402 233.559 280.078 219.082H189.49Z" fill="black"/>
<path d="M280.078 259.62H189.49C189.252 259.614 189.022 259.539 188.835 259.406C188.648 259.274 188.514 259.09 188.453 258.882C184.565 245.734 184.565 231.901 188.453 218.753C188.525 218.561 188.662 218.395 188.843 218.277C189.025 218.159 189.244 218.094 189.468 218.093H280.057C280.245 218.094 280.43 218.139 280.593 218.224C280.756 218.309 280.891 218.431 280.986 218.578C281.08 218.729 281.13 218.899 281.13 219.073C281.13 219.246 281.08 219.416 280.986 219.568C271.676 233.481 280.986 258.067 280.986 258.378C281.041 258.527 281.056 258.685 281.03 258.841C281.004 258.996 280.937 259.143 280.834 259.271C280.742 259.373 280.627 259.456 280.497 259.516C280.367 259.577 280.224 259.612 280.078 259.62ZM190.332 257.679H278.588C276.795 252.459 270.942 233.054 278.242 220.033H190.311C186.856 232.391 186.864 245.325 190.332 257.679Z" fill="#263238"/>
</g>
</g>
<path d="M9.28571 251.858V223.177C9.28571 222.472 9.5975 221.796 10.1524 221.297C10.7074 220.799 11.4601 220.519 12.2449 220.519H283.815C284.388 220.519 284.938 220.314 285.343 219.95C285.748 219.586 285.975 219.093 285.975 218.578C285.975 218.063 285.748 217.57 285.343 217.206C284.938 216.842 284.388 216.637 283.815 216.637H4.90102C4.1162 216.637 3.36354 216.918 2.8086 217.416C2.25365 217.915 1.94189 218.591 1.94189 219.296V256.011C1.94189 257.148 2.44481 258.239 3.34002 259.043C4.23522 259.847 5.44939 260.299 6.7154 260.299H283.815C284.388 260.299 284.938 260.095 285.343 259.731C285.748 259.367 285.975 258.873 285.975 258.359C285.975 257.844 285.748 257.35 285.343 256.986C284.938 256.623 284.388 256.418 283.815 256.418H14.0592C13.4061 256.419 12.7596 256.3 12.1598 256.068C11.5601 255.835 11.0197 255.495 10.5723 255.068C10.1248 254.64 9.77977 254.135 9.55847 253.583C9.33718 253.031 9.24433 252.443 9.28571 251.858Z" fill="#263238"/>
<path d="M283.816 261.134H6.71578C5.16335 261.134 3.6745 260.579 2.57676 259.593C1.47902 258.607 0.862305 257.269 0.862305 255.875V219.16C0.862305 218.684 0.966788 218.212 1.16977 217.771C1.37276 217.331 1.67027 216.931 2.04534 216.594C2.42041 216.257 2.86568 215.99 3.35573 215.808C3.84577 215.625 4.37098 215.531 4.9014 215.531H283.816C284.274 215.498 284.734 215.55 285.168 215.685C285.603 215.82 286.001 216.034 286.339 216.314C286.677 216.593 286.946 216.933 287.13 217.311C287.315 217.689 287.41 218.097 287.41 218.51C287.41 218.923 287.315 219.331 287.13 219.709C286.946 220.087 286.677 220.427 286.339 220.707C286.001 220.986 285.603 221.2 285.168 221.335C284.734 221.47 284.274 221.522 283.816 221.489H12.2452C11.7469 221.489 11.2689 221.667 10.9165 221.983C10.5641 222.3 10.3661 222.729 10.3661 223.177V251.858C10.3717 252.736 10.7627 253.577 11.4542 254.199C12.1456 254.82 13.0818 255.171 14.0596 255.176H283.816C284.274 255.143 284.734 255.195 285.168 255.33C285.603 255.464 286.001 255.678 286.339 255.958C286.677 256.238 286.946 256.578 287.13 256.956C287.315 257.334 287.41 257.742 287.41 258.155C287.41 258.568 287.315 258.976 287.13 259.354C286.946 259.732 286.677 260.072 286.339 260.351C286.001 260.631 285.603 260.845 285.168 260.98C284.734 261.114 284.274 261.167 283.816 261.134ZM4.98782 217.472C4.48943 217.472 4.01145 217.65 3.65904 217.966C3.30663 218.283 3.10864 218.712 3.10864 219.16V255.875C3.11431 256.753 3.50528 257.594 4.19672 258.215C4.88816 258.837 5.82433 259.188 6.80217 259.193H283.816C283.981 259.213 284.149 259.202 284.308 259.159C284.468 259.116 284.615 259.043 284.741 258.945C284.866 258.846 284.967 258.725 285.036 258.589C285.105 258.452 285.14 258.304 285.14 258.155C285.14 258.005 285.105 257.857 285.036 257.721C284.967 257.585 284.866 257.464 284.741 257.365C284.615 257.267 284.468 257.194 284.308 257.151C284.149 257.108 283.981 257.096 283.816 257.117H14.0596C12.5072 257.117 11.0183 256.563 9.92057 255.576C8.82284 254.59 8.20612 253.253 8.20612 251.858V223.177C8.20612 222.7 8.3106 222.229 8.51359 221.788C8.71657 221.348 9.01409 220.948 9.38916 220.611C9.76422 220.274 10.2095 220.007 10.6995 219.824C11.1896 219.642 11.7148 219.548 12.2452 219.548H283.816C283.981 219.569 284.149 219.557 284.308 219.514C284.468 219.471 284.615 219.398 284.741 219.3C284.866 219.201 284.967 219.08 285.036 218.944C285.105 218.808 285.14 218.66 285.14 218.51C285.14 218.36 285.105 218.213 285.036 218.076C284.967 217.94 284.866 217.819 284.741 217.72C284.615 217.622 284.468 217.549 284.308 217.506C284.149 217.463 283.981 217.452 283.816 217.472H4.98782Z" fill="#263238"/>
<path d="M9.50195 299.633C11.1003 294.802 16.9754 274.872 9.71796 262.104H272.497V299.633H9.50195Z" fill="white"/>
<path d="M272.475 300.604H9.50129C9.33393 300.602 9.16912 300.567 9.01941 300.499C8.86971 300.432 8.73906 300.335 8.63733 300.216C8.5349 300.092 8.46595 299.949 8.43595 299.797C8.40596 299.646 8.41574 299.49 8.46453 299.342C9.7605 295.461 15.9163 275.144 8.7453 262.473C8.65447 262.327 8.60678 262.164 8.60678 261.997C8.60678 261.831 8.65447 261.667 8.7453 261.522C8.84222 261.379 8.9787 261.261 9.14146 261.179C9.30421 261.097 9.48771 261.055 9.67409 261.056H272.475C272.762 261.056 273.036 261.158 273.239 261.34C273.441 261.522 273.555 261.769 273.555 262.026V299.556C273.567 299.69 273.548 299.824 273.499 299.951C273.45 300.078 273.373 300.194 273.271 300.293C273.17 300.391 273.046 300.47 272.909 300.523C272.772 300.577 272.625 300.604 272.475 300.604ZM10.9269 298.663H271.395V263.074H11.4236C17.2123 275.144 13.0004 292.007 10.9269 298.663Z" fill="#263238"/>
<path d="M166.379 271.379H126.312C126.025 271.379 125.751 271.277 125.548 271.095C125.346 270.913 125.232 270.667 125.232 270.409C125.232 270.152 125.346 269.905 125.548 269.723C125.751 269.541 126.025 269.439 126.312 269.439H166.379C166.665 269.439 166.94 269.541 167.143 269.723C167.345 269.905 167.459 270.152 167.459 270.409C167.459 270.667 167.345 270.913 167.143 271.095C166.94 271.277 166.665 271.379 166.379 271.379Z" fill="#263238"/>
<path d="M112.941 282.906H107.476C107.19 282.906 106.915 282.804 106.713 282.622C106.51 282.44 106.396 282.193 106.396 281.936C106.396 281.679 106.51 281.432 106.713 281.25C106.915 281.068 107.19 280.966 107.476 280.966H112.941C113.228 280.966 113.502 281.068 113.705 281.25C113.907 281.432 114.021 281.679 114.021 281.936C114.021 282.193 113.907 282.44 113.705 282.622C113.502 282.804 113.228 282.906 112.941 282.906Z" fill="#263238"/>
<path d="M167.005 282.906H122.057C121.77 282.906 121.495 282.804 121.293 282.622C121.09 282.44 120.977 282.193 120.977 281.936C120.977 281.679 121.09 281.432 121.293 281.25C121.495 281.068 121.77 280.966 122.057 280.966H167.005C167.29 280.971 167.561 281.074 167.763 281.255C167.964 281.436 168.08 281.68 168.085 281.936C168.085 282.193 167.971 282.44 167.769 282.622C167.566 282.804 167.292 282.906 167.005 282.906Z" fill="#263238"/>
<path d="M166.055 294.705H147.565C147.279 294.705 147.004 294.602 146.802 294.42C146.599 294.238 146.485 293.992 146.485 293.734C146.485 293.477 146.599 293.23 146.802 293.048C147.004 292.866 147.279 292.764 147.565 292.764H166.055C166.341 292.764 166.616 292.866 166.818 293.048C167.021 293.23 167.135 293.477 167.135 293.734C167.135 293.992 167.021 294.238 166.818 294.42C166.616 294.602 166.341 294.705 166.055 294.705Z" fill="#263238"/>
<path d="M167.869 295.849V267.169C167.869 266.464 167.558 265.787 167.003 265.289C166.448 264.79 165.695 264.51 164.91 264.51H4.18827C3.61542 264.51 3.06602 264.306 2.66095 263.942C2.25588 263.578 2.02832 263.084 2.02832 262.57C2.02832 262.055 2.25588 261.561 2.66095 261.197C3.06602 260.834 3.61542 260.629 4.18827 260.629H283.016C283.801 260.629 284.554 260.909 285.109 261.408C285.664 261.906 285.975 262.583 285.975 263.288V300.002C285.975 301.14 285.472 302.23 284.577 303.035C283.682 303.839 282.468 304.291 281.202 304.291H4.18827C3.61542 304.291 3.06602 304.086 2.66095 303.722C2.25588 303.358 2.02832 302.865 2.02832 302.35C2.02832 301.836 2.25588 301.342 2.66095 300.978C3.06602 300.614 3.61542 300.41 4.18827 300.41H163.096C163.749 300.411 164.395 300.292 164.995 300.059C165.595 299.827 166.135 299.487 166.583 299.059C167.03 298.632 167.375 298.126 167.597 297.574C167.818 297.022 167.911 296.435 167.869 295.849Z" fill="#8BCDE0"/>
<path d="M281.202 305.125H4.18836C3.73047 305.158 3.26989 305.106 2.83563 304.971C2.40136 304.837 2.00284 304.623 1.66518 304.343C1.32752 304.063 1.05801 303.723 0.873691 303.345C0.689374 302.967 0.594238 302.559 0.594238 302.146C0.594238 301.734 0.689374 301.325 0.873691 300.947C1.05801 300.569 1.32752 300.23 1.66518 299.95C2.00284 299.67 2.40136 299.456 2.83563 299.321C3.26989 299.187 3.73047 299.134 4.18836 299.168H163.096C164.074 299.163 165.01 298.811 165.701 298.19C166.393 297.569 166.784 296.728 166.789 295.849V267.169C166.801 266.73 166.623 266.305 166.293 265.983C165.962 265.661 165.505 265.467 165.018 265.441H4.18836C3.73047 265.475 3.26989 265.422 2.83563 265.288C2.40136 265.153 2.00284 264.939 1.66518 264.659C1.32752 264.379 1.05801 264.04 0.873691 263.662C0.689374 263.284 0.594238 262.875 0.594238 262.463C0.594238 262.05 0.689374 261.642 0.873691 261.264C1.05801 260.886 1.32752 260.546 1.66518 260.266C2.00284 259.986 2.40136 259.772 2.83563 259.638C3.26989 259.503 3.73047 259.451 4.18836 259.484H283.016C284.088 259.484 285.115 259.866 285.872 260.547C286.63 261.227 287.055 262.15 287.055 263.113V299.827C287.058 300.521 286.909 301.207 286.616 301.849C286.324 302.49 285.893 303.073 285.35 303.565C284.806 304.057 284.16 304.448 283.449 304.716C282.737 304.983 281.973 305.123 281.202 305.125ZM4.18836 301.108C4.02336 301.088 3.85544 301.1 3.69587 301.142C3.5363 301.185 3.3888 301.258 3.26329 301.357C3.13779 301.455 3.03719 301.576 2.96825 301.713C2.89932 301.849 2.86364 301.997 2.86364 302.146C2.86364 302.296 2.89932 302.444 2.96825 302.58C3.03719 302.716 3.13779 302.838 3.26329 302.936C3.3888 303.034 3.5363 303.107 3.69587 303.15C3.85544 303.193 4.02336 303.205 4.18836 303.185H281.202C282.18 303.179 283.116 302.828 283.807 302.207C284.499 301.586 284.89 300.745 284.895 299.866V263.152C284.895 262.704 284.697 262.274 284.345 261.958C283.993 261.641 283.515 261.463 283.016 261.463H4.18836C4.02336 261.443 3.85544 261.455 3.69587 261.498C3.5363 261.54 3.3888 261.614 3.26329 261.712C3.13779 261.81 3.03719 261.932 2.96825 262.068C2.89932 262.204 2.86364 262.352 2.86364 262.502C2.86364 262.651 2.89932 262.799 2.96825 262.935C3.03719 263.072 3.13779 263.193 3.26329 263.291C3.3888 263.39 3.5363 263.463 3.69587 263.506C3.85544 263.548 4.02336 263.56 4.18836 263.54H165.018C166.089 263.54 167.117 263.922 167.874 264.603C168.632 265.283 169.057 266.206 169.057 267.169V295.849C169.052 297.243 168.433 298.577 167.337 299.562C166.24 300.547 164.755 301.103 163.204 301.108H4.18836Z" fill="#263238"/>
<path d="M9.50195 343.606C11.1003 338.793 16.9754 318.864 9.71796 306.095H272.497V343.606H9.50195Z" fill="white"/>
<path d="M272.475 344.576H9.50113C9.33287 344.579 9.16628 344.545 9.01575 344.478C8.86523 344.41 8.7353 344.311 8.63716 344.188C8.53501 344.068 8.46607 343.928 8.43602 343.78C8.40597 343.631 8.41568 343.478 8.46436 343.334C9.76033 339.453 15.9162 319.116 8.74513 306.464C8.65431 306.319 8.60661 306.155 8.60661 305.989C8.60661 305.822 8.65431 305.658 8.74513 305.513C8.84205 305.37 8.97854 305.252 9.14129 305.171C9.30405 305.089 9.48754 305.047 9.67393 305.048H272.475C272.761 305.048 273.036 305.15 273.239 305.332C273.441 305.514 273.555 305.76 273.555 306.018V343.528C273.567 343.662 273.548 343.796 273.499 343.923C273.45 344.05 273.372 344.166 273.271 344.265C273.169 344.363 273.046 344.442 272.909 344.495C272.772 344.549 272.624 344.576 272.475 344.576ZM10.9267 342.635H271.395V307.066H11.4235C17.2122 319.097 13.0003 335.979 10.9267 342.635Z" fill="#263238"/>
<path d="M166.271 315.623H126.139C125.853 315.623 125.578 315.521 125.375 315.339C125.173 315.157 125.059 314.91 125.059 314.653C125.059 314.396 125.173 314.149 125.375 313.967C125.578 313.785 125.853 313.683 126.139 313.683H166.228C166.512 313.688 166.784 313.792 166.985 313.972C167.187 314.153 167.302 314.397 167.308 314.653C167.308 314.904 167.2 315.145 167.007 315.326C166.814 315.507 166.55 315.613 166.271 315.623Z" fill="#263238"/>
<path d="M112.812 327.092H107.348C107.061 327.092 106.786 326.99 106.584 326.808C106.381 326.626 106.268 326.379 106.268 326.122C106.268 325.864 106.381 325.617 106.584 325.436C106.786 325.254 107.061 325.151 107.348 325.151H112.812C113.099 325.151 113.373 325.254 113.576 325.436C113.778 325.617 113.892 325.864 113.892 326.122C113.892 326.379 113.778 326.626 113.576 326.808C113.373 326.99 113.099 327.092 112.812 327.092Z" fill="#263238"/>
<path d="M166.876 327.092H121.927C121.641 327.092 121.366 326.99 121.163 326.808C120.961 326.626 120.847 326.379 120.847 326.122C120.847 325.864 120.961 325.617 121.163 325.436C121.366 325.254 121.641 325.151 121.927 325.151H166.876C167.162 325.151 167.437 325.254 167.639 325.436C167.842 325.617 167.956 325.864 167.956 326.122C167.956 326.379 167.842 326.626 167.639 326.808C167.437 326.99 167.162 327.092 166.876 327.092Z" fill="#263238"/>
<path d="M165.925 338.968H147.436C147.15 338.968 146.875 338.866 146.672 338.684C146.47 338.502 146.356 338.255 146.356 337.997C146.356 337.74 146.47 337.493 146.672 337.311C146.875 337.129 147.15 337.027 147.436 337.027H165.925C166.212 337.027 166.486 337.129 166.689 337.311C166.891 337.493 167.005 337.74 167.005 337.997C167.005 338.255 166.891 338.502 166.689 338.684C166.486 338.866 166.212 338.968 165.925 338.968Z" fill="#263238"/>
<path d="M167.869 339.822V311.16C167.869 310.455 167.558 309.779 167.003 309.28C166.448 308.782 165.695 308.502 164.91 308.502H4.18827C3.61542 308.502 3.06602 308.297 2.66095 307.933C2.25588 307.569 2.02832 307.076 2.02832 306.561C2.02832 306.046 2.25588 305.553 2.66095 305.189C3.06602 304.825 3.61542 304.621 4.18827 304.621H283.016C283.801 304.621 284.554 304.901 285.109 305.399C285.664 305.898 285.975 306.574 285.975 307.279V343.838C285.978 344.403 285.857 344.963 285.618 345.486C285.38 346.008 285.028 346.483 284.585 346.883C284.141 347.284 283.614 347.601 283.034 347.818C282.453 348.035 281.831 348.146 281.202 348.146H4.18827C3.61542 348.146 3.06602 347.942 2.66095 347.578C2.25588 347.214 2.02832 346.721 2.02832 346.206C2.02832 345.691 2.25588 345.198 2.66095 344.834C3.06602 344.47 3.61542 344.265 4.18827 344.265H163.096C163.737 344.263 164.37 344.145 164.96 343.919C165.549 343.693 166.082 343.363 166.527 342.949C166.972 342.535 167.32 342.045 167.551 341.507C167.781 340.97 167.89 340.397 167.869 339.822Z" fill="#0E418D"/>
<path d="M281.202 349.117H4.18836C3.73047 349.15 3.26989 349.098 2.83563 348.963C2.40136 348.828 2.00284 348.614 1.66518 348.335C1.32752 348.055 1.05801 347.715 0.873691 347.337C0.689374 346.959 0.594238 346.551 0.594238 346.138C0.594238 345.725 0.689374 345.317 0.873691 344.939C1.05801 344.561 1.32752 344.221 1.66518 343.941C2.00284 343.662 2.40136 343.448 2.83563 343.313C3.26989 343.178 3.73047 343.126 4.18836 343.159H163.096C164.077 343.154 165.017 342.8 165.709 342.175C166.401 341.549 166.789 340.703 166.789 339.822V311.16C166.789 310.712 166.591 310.283 166.239 309.966C165.887 309.65 165.409 309.472 164.91 309.472H4.18836C3.73047 309.505 3.26989 309.453 2.83563 309.318C2.40136 309.184 2.00284 308.97 1.66518 308.69C1.32752 308.41 1.05801 308.07 0.873691 307.692C0.689374 307.314 0.594238 306.906 0.594238 306.493C0.594238 306.08 0.689374 305.672 0.873691 305.294C1.05801 304.916 1.32752 304.576 1.66518 304.297C2.00284 304.017 2.40136 303.803 2.83563 303.668C3.26989 303.534 3.73047 303.481 4.18836 303.514H283.016C283.547 303.514 284.072 303.608 284.562 303.791C285.052 303.973 285.497 304.24 285.872 304.577C286.247 304.914 286.545 305.314 286.748 305.755C286.951 306.195 287.055 306.667 287.055 307.143V343.838C287.055 345.235 286.439 346.575 285.342 347.564C284.245 348.553 282.756 349.112 281.202 349.117ZM4.18836 345.1C4.02336 345.079 3.85544 345.091 3.69587 345.134C3.5363 345.177 3.3888 345.25 3.26329 345.348C3.13779 345.447 3.03719 345.568 2.96825 345.704C2.89932 345.84 2.86364 345.988 2.86364 346.138C2.86364 346.288 2.89932 346.435 2.96825 346.572C3.03719 346.708 3.13779 346.829 3.26329 346.928C3.3888 347.026 3.5363 347.099 3.69587 347.142C3.85544 347.185 4.02336 347.196 4.18836 347.176H281.202C282.184 347.171 283.123 346.817 283.815 346.192C284.507 345.566 284.895 344.72 284.895 343.838V307.143C284.895 306.695 284.697 306.266 284.345 305.949C283.993 305.633 283.515 305.455 283.016 305.455H4.18836C4.02336 305.435 3.85544 305.446 3.69587 305.489C3.5363 305.532 3.3888 305.605 3.26329 305.704C3.13779 305.802 3.03719 305.923 2.96825 306.059C2.89932 306.196 2.86364 306.344 2.86364 306.493C2.86364 306.643 2.89932 306.791 2.96825 306.927C3.03719 307.063 3.13779 307.184 3.26329 307.283C3.3888 307.381 3.5363 307.454 3.69587 307.497C3.85544 307.54 4.02336 307.552 4.18836 307.531H165.018C166.089 307.531 167.117 307.914 167.874 308.594C168.632 309.275 169.057 310.198 169.057 311.16V339.822C169.057 341.218 168.441 342.558 167.344 343.547C166.247 344.536 164.758 345.095 163.204 345.1H4.18836Z" fill="#263238"/>
<path d="M9.50195 211.65C11.1003 206.838 16.9754 186.909 9.71796 174.14H272.497V211.65H9.50195Z" fill="white"/>
<path d="M272.475 212.621H9.50113C9.33287 212.624 9.16628 212.59 9.01575 212.522C8.86523 212.455 8.7353 212.355 8.63716 212.232C8.53501 212.113 8.46607 211.973 8.43602 211.824C8.40597 211.676 8.41568 211.523 8.46436 211.379C9.76033 207.498 15.9162 187.161 8.74513 174.509C8.65431 174.364 8.60661 174.2 8.60661 174.033C8.60661 173.867 8.65431 173.703 8.74513 173.558C8.84205 173.415 8.97854 173.297 9.14129 173.215C9.30405 173.134 9.48754 173.091 9.67393 173.092H272.475C272.761 173.092 273.036 173.194 273.239 173.376C273.441 173.558 273.555 173.805 273.555 174.062V211.573C273.567 211.706 273.548 211.841 273.499 211.968C273.45 212.095 273.372 212.211 273.271 212.31C273.169 212.408 273.046 212.486 272.909 212.54C272.772 212.594 272.624 212.621 272.475 212.621ZM10.9267 210.68H271.395V175.11H11.4235C17.2122 187.142 13.0003 204.024 10.9267 210.68Z" fill="#263238"/>
<path d="M166.962 183.513H126.873C126.587 183.513 126.312 183.411 126.11 183.229C125.907 183.047 125.793 182.8 125.793 182.543C125.793 182.285 125.907 182.038 126.11 181.856C126.312 181.675 126.587 181.572 126.873 181.572H166.962C167.249 181.572 167.523 181.675 167.726 181.856C167.928 182.038 168.042 182.285 168.042 182.543C168.042 182.8 167.928 183.047 167.726 183.229C167.523 183.411 167.249 183.513 166.962 183.513Z" fill="#263238"/>
<path d="M113.503 194.962H108.038C107.752 194.962 107.477 194.86 107.275 194.678C107.072 194.496 106.958 194.249 106.958 193.992C106.964 193.736 107.08 193.492 107.281 193.311C107.482 193.13 107.754 193.026 108.038 193.021H113.503C113.79 193.021 114.064 193.124 114.267 193.306C114.469 193.487 114.583 193.734 114.583 193.992C114.583 194.249 114.469 194.496 114.267 194.678C114.064 194.86 113.79 194.962 113.503 194.962Z" fill="#263238"/>
<path d="M167.567 194.962H122.618C122.332 194.962 122.057 194.86 121.854 194.678C121.652 194.496 121.538 194.249 121.538 193.992C121.544 193.736 121.659 193.492 121.861 193.311C122.062 193.13 122.333 193.026 122.618 193.021H167.567C167.853 193.021 168.128 193.124 168.33 193.306C168.533 193.487 168.647 193.734 168.647 193.992C168.647 194.249 168.533 194.496 168.33 194.678C168.128 194.86 167.853 194.962 167.567 194.962Z" fill="#263238"/>
<path d="M166.638 206.838H148.127C147.84 206.838 147.566 206.736 147.363 206.554C147.161 206.372 147.047 206.125 147.047 205.868C147.052 205.612 147.168 205.368 147.369 205.187C147.571 205.006 147.842 204.902 148.127 204.897H166.638C166.922 204.902 167.194 205.006 167.395 205.187C167.596 205.368 167.712 205.612 167.718 205.868C167.718 206.125 167.604 206.372 167.401 206.554C167.199 206.736 166.924 206.838 166.638 206.838Z" fill="#263238"/>
<path d="M167.869 207.866V179.205C167.869 178.5 167.558 177.824 167.003 177.325C166.448 176.826 165.695 176.546 164.91 176.546H4.18827C3.61542 176.546 3.06602 176.342 2.66095 175.978C2.25588 175.614 2.02832 175.121 2.02832 174.606C2.02832 174.091 2.25588 173.598 2.66095 173.234C3.06602 172.87 3.61542 172.665 4.18827 172.665H283.016C283.801 172.665 284.554 172.945 285.109 173.444C285.664 173.943 285.975 174.619 285.975 175.324V211.883C285.978 212.448 285.857 213.008 285.618 213.53C285.38 214.053 285.028 214.528 284.585 214.928C284.141 215.329 283.614 215.646 283.034 215.863C282.453 216.08 281.831 216.191 281.202 216.191H4.18827C3.61542 216.191 3.06602 215.987 2.66095 215.623C2.25588 215.259 2.02832 214.765 2.02832 214.251C2.02832 213.736 2.25588 213.242 2.66095 212.879C3.06602 212.515 3.61542 212.31 4.18827 212.31H163.096C163.737 212.308 164.37 212.19 164.96 211.964C165.549 211.738 166.082 211.408 166.527 210.994C166.972 210.58 167.32 210.089 167.551 209.552C167.781 209.015 167.89 208.442 167.869 207.866Z" fill="#0E418D"/>
<path d="M281.202 217.161H4.18836C3.73047 217.195 3.26989 217.142 2.83563 217.008C2.40136 216.873 2.00284 216.659 1.66518 216.379C1.32752 216.099 1.05801 215.76 0.873691 215.382C0.689374 215.004 0.594238 214.595 0.594238 214.183C0.594238 213.77 0.689374 213.362 0.873691 212.984C1.05801 212.606 1.32752 212.266 1.66518 211.986C2.00284 211.706 2.40136 211.492 2.83563 211.358C3.26989 211.223 3.73047 211.171 4.18836 211.204H163.096C164.077 211.199 165.017 210.845 165.709 210.22C166.401 209.594 166.789 208.748 166.789 207.866V179.205C166.789 178.757 166.591 178.328 166.239 178.011C165.887 177.695 165.409 177.517 164.91 177.517H4.18836C3.73047 177.55 3.26989 177.498 2.83563 177.363C2.40136 177.228 2.00284 177.014 1.66518 176.734C1.32752 176.455 1.05801 176.115 0.873691 175.737C0.689374 175.359 0.594238 174.951 0.594238 174.538C0.594238 174.125 0.689374 173.717 0.873691 173.339C1.05801 172.961 1.32752 172.621 1.66518 172.341C2.00284 172.062 2.40136 171.848 2.83563 171.713C3.26989 171.578 3.73047 171.526 4.18836 171.559H283.016C284.088 171.559 285.115 171.942 285.872 172.622C286.63 173.303 287.055 174.226 287.055 175.188V211.883C287.055 213.28 286.439 214.619 285.342 215.609C284.245 216.598 282.756 217.156 281.202 217.161ZM4.18836 213.145C4.02336 213.124 3.85544 213.136 3.69587 213.179C3.5363 213.222 3.3888 213.295 3.26329 213.393C3.13779 213.491 3.03719 213.613 2.96825 213.749C2.89932 213.885 2.86364 214.033 2.86364 214.183C2.86364 214.332 2.89932 214.48 2.96825 214.616C3.03719 214.753 3.13779 214.874 3.26329 214.972C3.3888 215.071 3.5363 215.144 3.69587 215.187C3.85544 215.23 4.02336 215.241 4.18836 215.221H281.202C282.184 215.216 283.123 214.862 283.815 214.236C284.507 213.611 284.895 212.765 284.895 211.883V175.188C284.895 174.966 284.847 174.747 284.752 174.542C284.658 174.337 284.52 174.151 284.345 173.994C284.171 173.837 283.963 173.713 283.735 173.628C283.507 173.543 283.263 173.5 283.016 173.5H4.18836C4.02336 173.479 3.85544 173.491 3.69587 173.534C3.5363 173.577 3.3888 173.65 3.26329 173.748C3.13779 173.847 3.03719 173.968 2.96825 174.104C2.89932 174.24 2.86364 174.388 2.86364 174.538C2.86364 174.688 2.89932 174.835 2.96825 174.972C3.03719 175.108 3.13779 175.229 3.26329 175.328C3.3888 175.426 3.5363 175.499 3.69587 175.542C3.85544 175.585 4.02336 175.596 4.18836 175.576H165.018C166.089 175.576 167.117 175.958 167.874 176.639C168.632 177.319 169.057 178.242 169.057 179.205V207.866C169.057 209.263 168.441 210.602 167.344 211.592C166.247 212.581 164.758 213.139 163.204 213.145H4.18836Z" fill="#263238"/>
<g clip-path="url(#clip0_299_128)">
<mask id="mask4_299_128" style="mask-type:luminance" maskUnits="userSpaceOnUse" x="184" y="0" width="288" height="196">
<path d="M472 0H184.217V195.435H472V0Z" fill="white"/>
</mask>
<g mask="url(#mask4_299_128)">
<mask id="mask5_299_128" style="mask-type:luminance" maskUnits="userSpaceOnUse" x="205" y="28" width="246" height="168">
<path d="M205.246 28.9314H450.573V195.534H205.246V28.9314Z" fill="white"/>
</mask>
<g mask="url(#mask5_299_128)">
<path d="M209.853 90.4021C212.395 90.4021 214.46 92.4615 214.46 94.998C214.46 97.5345 212.395 99.5939 209.853 99.5939C207.31 99.5939 205.246 97.5345 205.246 94.998C205.246 92.4615 207.31 90.4021 209.853 90.4021Z" fill="#B3C3C6"/>
<path d="M421.778 127.17C424.321 127.17 426.386 129.229 426.386 131.766C426.386 134.302 424.321 136.361 421.778 136.361C419.236 136.361 417.171 134.302 417.171 131.766C417.171 129.229 419.236 127.17 421.778 127.17Z" fill="#B3C3C6"/>
<path d="M381.466 29.5059C384.009 29.5059 386.074 31.5653 386.074 34.1018C386.074 36.6383 384.009 38.6978 381.466 38.6978C378.924 38.6978 376.859 36.6383 376.859 34.1018C376.859 31.5653 378.924 29.5059 381.466 29.5059Z" stroke="#B3C1C6" stroke-width="1.70495"/>
</g>
<mask id="mask6_299_128" style="mask-type:luminance" maskUnits="userSpaceOnUse" x="211" y="37" width="234" height="159">
<path d="M211.6 37.0632H444.617V195.307H211.6V37.0632Z" fill="white"/>
</mask>
<g mask="url(#mask6_299_128)">
<path d="M256.265 56.6019C255.414 60.1172 251.864 62.285 248.345 61.4397C244.826 60.5943 242.66 57.0538 243.512 53.5385C244.364 50.0232 247.913 47.8554 251.432 48.7007C254.952 49.5461 257.117 53.0866 256.265 56.6019Z" stroke="#DDE4E7" stroke-width="1.6194"/>
<path d="M233.332 145.312L223.61 143.794L223.78 142.716L233.502 144.233L233.332 145.312ZM228.416 148.413L227.335 148.245L228.697 139.614L229.777 139.783L228.416 148.413Z" fill="#DDE4E7"/>
<path d="M445.162 94.9091L435.561 97.0555L435.321 95.99L444.922 93.8435L445.162 94.9091ZM441.736 99.5925L440.67 99.831L438.746 91.3066L439.813 91.0681L441.736 99.5925Z" fill="#DDE4E7"/>
<path d="M328.749 48.1774L322.877 56.0656L321.999 55.4153L327.871 47.5271L328.749 48.1774ZM329.212 53.9593L328.56 54.8357L321.535 49.6334L322.188 48.757L329.212 53.9593Z" fill="#DDE4E7"/>
</g>
<mask id="mask7_299_128" style="mask-type:luminance" maskUnits="userSpaceOnUse" x="184" y="2" width="288" height="196">
<path d="M184.217 2.34052H472V197.775H184.217V2.34052Z" fill="white"/>
</mask>
<g mask="url(#mask7_299_128)">
<mask id="mask8_299_128" style="mask-type:luminance" maskUnits="userSpaceOnUse" x="184" y="2" width="288" height="196">
<path d="M184.217 2.34052H472V197.775H184.217V2.34052Z" fill="white"/>
</mask>
<g mask="url(#mask8_299_128)">
<path d="M340.786 118.794L362.143 140.099L350.468 151.745L329.112 130.44L340.786 118.794Z" fill="#D8D8D8"/>
<path d="M362.31 132.263L388.351 158.241C390.988 160.872 390.989 165.142 388.353 167.771L377.802 178.297C375.166 180.926 370.885 180.925 368.249 178.295L342.208 152.317C339.571 149.686 339.57 145.416 342.206 142.787L352.757 132.261C355.393 129.632 359.673 129.633 362.31 132.263Z" fill="#4F539A"/>
<path d="M344.215 128.585C360.914 111.826 360.886 84.6305 344.162 67.8403C327.439 51.0501 300.342 51.0311 283.65 67.7901C266.951 84.5497 266.972 111.745 283.702 128.528C300.425 145.318 327.516 145.345 344.215 128.585Z" fill="#4F539A"/>
<path d="M288.732 74.3327C301.91 61.1864 323.324 61.2012 336.521 74.3657C349.717 87.5302 349.732 108.893 336.554 122.039C323.375 135.185 301.961 135.17 288.765 122.006C275.568 108.841 275.554 87.479 288.732 74.3327Z" fill="white"/>
</g>
<g opacity="0.92">
<path d="M302.805 89.0157C304.462 89.0157 305.808 91.5737 305.808 94.7243C305.808 97.8749 304.462 100.433 302.805 100.433C301.148 100.433 299.803 97.8749 299.803 94.7243C299.803 91.5737 301.148 89.0157 302.805 89.0157Z" fill="#3C444A"/>
</g>
<g opacity="0.92">
<path d="M321.747 89.0157C323.404 89.0157 324.749 91.5737 324.749 94.7243C324.749 97.8749 323.404 100.433 321.747 100.433C320.09 100.433 318.744 97.8749 318.744 94.7243C318.744 91.5737 320.09 89.0157 321.747 89.0157Z" fill="#3C444A"/>
</g>
<g opacity="0.755797">
<path d="M351.753 93.2877C357.484 93.2877 362.131 89.9 362.131 85.7185C362.131 81.537 351.753 71.4313 351.753 71.4313C351.753 71.4313 341.375 81.537 341.375 85.7185C341.375 89.9 346.022 93.2877 351.753 93.2877Z" fill="url(#paint0_linear_299_128)"/>
</g>
<path d="M319.664 111.422C310.425 106.814 303.02 111.95 304.236 111.687C309.556 110.537 320.019 111.599 319.664 111.422Z" fill="#677583"/>
</g>
<path d="M309.588 179.597C315.519 179.597 320.333 180.599 320.333 181.832C320.333 183.065 315.519 184.066 309.588 184.066C303.658 184.066 298.843 183.065 298.843 181.832C298.843 180.599 303.658 179.597 309.588 179.597Z" fill="#D8DBDF"/>
</g>
</g>
<defs>
<linearGradient id="paint0_linear_299_128" x1="351.764" y1="77.0472" x2="357.613" y2="93.2968" gradientUnits="userSpaceOnUse">
<stop stop-color="#DCFAFF"/>
<stop offset="0.5" stop-color="#DDFAFF"/>
<stop offset="1" stop-color="#DFF8FF"/>
</linearGradient>
<clipPath id="clip0_299_128">
<rect width="287.783" height="195.435" fill="white" transform="translate(184.217)"/>
</clipPath>
</defs>
</svg>
